<?xml version="1.0" encoding="utf-8"?>
<!-- Generator: Adobe Illustrator 16.0.4, SVG Export Plug-In . SVG Version: 6.00 Build 0)  -->
<!DOCTYPE svg PUBLIC "-//W3C//DTD SVG 1.1//EN" "http://www.w3.org/Graphics/SVG/1.1/DTD/svg11.dtd">
<svg version="1.1" id="Layer_1" xmlns="http://www.w3.org/2000/svg" xmlns:xlink="http://www.w3.org/1999/xlink" x="0px" y="0px"
	 width="465px" height="180px" viewBox="0 0 465 180" enable-background="new 0 0 465 180" xml:space="preserve">
<g>
	<g>
		
			<line fill="none" stroke="#BCBEC0" stroke-width="60" stroke-linecap="square" stroke-miterlimit="10" x1="106.728" y1="90.275" x2="297.5" y2="90.275"/>
		<g>
			<polygon fill="#BCBEC0" points="287.727,17.379 287.727,163.172 360.594,90.281 			"/>
		</g>
	</g>
</g>
<g>
	<g>
		<path fill="none" stroke="#000000" stroke-width="5.0249" stroke-linecap="round" stroke-miterlimit="10" d="M64.321,26.1"/>
		<path fill="none" stroke="#000000" stroke-width="5.0249" stroke-linecap="round" stroke-miterlimit="10" d="M20.552,26.1"/>
		
			<line fill="none" stroke="#000000" stroke-width="5.0249" stroke-linecap="round" stroke-miterlimit="10" x1="20.716" y1="36.611" x2="50.772" y2="36.611"/>
		
			<line fill="none" stroke="#000000" stroke-width="5.0249" stroke-linecap="round" stroke-miterlimit="10" x1="25.879" y1="47.122" x2="40.223" y2="47.122"/>
		
			<line fill="none" stroke="#000000" stroke-width="5.0249" stroke-linecap="round" stroke-miterlimit="10" x1="19.043" y1="57.632" x2="62.673" y2="57.632"/>
		
			<line fill="none" stroke="#000000" stroke-width="5.0249" stroke-linecap="round" stroke-miterlimit="10" x1="29.208" y1="68.144" x2="64.125" y2="68.144"/>
		
			<line fill="none" stroke="#000000" stroke-width="5.0249" stroke-linecap="round" stroke-miterlimit="10" x1="48.372" y1="78.655" x2="53.575" y2="78.655"/>
		
			<line fill="none" stroke="#000000" stroke-width="5.0249" stroke-miterlimit="10" x1="22.536" y1="89.166" x2="66.026" y2="89.166"/>
		
			<line fill="none" stroke="#000000" stroke-width="5.0249" stroke-linecap="round" stroke-miterlimit="10" x1="17.7" y1="99.676" x2="59.476" y2="99.676"/>
		
			<line fill="none" stroke="#000000" stroke-width="5.0249" stroke-miterlimit="10" x1="28.863" y1="110.188" x2="36.927" y2="110.188"/>
		
			<line fill="none" stroke="#000000" stroke-width="5.0249" stroke-linecap="round" stroke-miterlimit="10" x1="21.027" y1="120.699" x2="54.377" y2="120.699"/>
		
			<line fill="none" stroke="#000000" stroke-width="5.0249" stroke-linecap="round" stroke-miterlimit="10" x1="22.191" y1="131.209" x2="64.829" y2="131.209"/>
		
			<line fill="none" stroke="#000000" stroke-width="5.0249" stroke-linecap="round" stroke-miterlimit="10" x1="46.354" y1="141.721" x2="57.28" y2="141.721"/>
		
			<line fill="none" stroke="#000000" stroke-width="5.0249" stroke-linecap="round" stroke-miterlimit="10" x1="32.518" y1="152.23" x2="63.73" y2="152.23"/>
		<path fill="none" stroke="#000000" stroke-width="5.0249" stroke-linecap="round" stroke-miterlimit="10" d="M63.18,162.742"/>
		<path fill="none" stroke="#000000" stroke-width="5.0249" stroke-linecap="round" stroke-miterlimit="10" d="M19.682,162.742"/>
		<path fill="none" stroke="#000000" stroke-width="5.0249" stroke-linecap="round" stroke-miterlimit="10" d="M67.533,23.359
			c0,16.763-50.281,16.763-50.281,33.525c0,16.763,50.281,16.763,50.281,33.526c0,16.763-50.281,16.763-50.281,33.527
			c0,16.764,50.281,16.764,50.281,33.529c0,2.902-1.507,5.303-3.998,7.373"/>
		<path fill="none" stroke="#000000" stroke-width="5.0249" stroke-linecap="round" stroke-miterlimit="10" d="M22.536,22.532
			c-3.25,2.288-5.284,4.981-5.284,8.353c0,16.763,50.281,16.763,50.281,33.526c0,16.763-50.281,16.763-50.281,33.526
			c0,16.765,50.281,16.765,50.281,33.53c0,16.766-50.281,16.766-50.281,33.531"/>
	</g>
	<g>
		
			<line fill="none" stroke="#000000" stroke-width="5.0249" stroke-linecap="round" stroke-miterlimit="10" x1="20.198" y1="26.1" x2="63.966" y2="26.1"/>
		
			<line fill="none" stroke="#000000" stroke-width="5.0249" stroke-linecap="round" stroke-miterlimit="10" x1="20.166" y1="162.742" x2="63.664" y2="162.742"/>
	</g>
</g>
<g>
	<g>
		<g>
			<path fill="none" stroke="#000000" stroke-width="5.0249" stroke-linecap="round" stroke-miterlimit="10" d="M213.91,26.1"/>
			<path fill="none" stroke="#000000" stroke-width="5.0249" stroke-linecap="round" stroke-miterlimit="10" d="M170.142,26.1"/>
			
				<line fill="none" stroke="#000000" stroke-width="5.0249" stroke-linecap="round" stroke-miterlimit="10" x1="170.306" y1="36.611" x2="200.362" y2="36.611"/>
			
				<line fill="none" stroke="#000000" stroke-width="5.0249" stroke-linecap="round" stroke-miterlimit="10" x1="175.469" y1="47.122" x2="189.813" y2="47.122"/>
			
				<line fill="none" stroke="#000000" stroke-width="5.0249" stroke-linecap="round" stroke-miterlimit="10" x1="168.633" y1="57.632" x2="212.264" y2="57.632"/>
			
				<line fill="none" stroke="#BE1E2D" stroke-width="5.0249" stroke-linecap="round" stroke-miterlimit="10" x1="178.797" y1="68.144" x2="213.715" y2="68.144"/>
			
				<line fill="none" stroke="#000000" stroke-width="5.0249" stroke-linecap="round" stroke-miterlimit="10" x1="197.961" y1="78.655" x2="203.165" y2="78.655"/>
			
				<line fill="none" stroke="#000000" stroke-width="5.0249" stroke-miterlimit="10" x1="172.125" y1="89.166" x2="215.615" y2="89.166"/>
			
				<line fill="none" stroke="#BE1E2D" stroke-width="5.0249" stroke-linecap="round" stroke-miterlimit="10" x1="167.29" y1="99.676" x2="209.066" y2="99.676"/>
			
				<line fill="none" stroke="#000000" stroke-width="5.0249" stroke-miterlimit="10" x1="178.453" y1="110.188" x2="186.517" y2="110.188"/>
			
				<line fill="none" stroke="#000000" stroke-width="5.0249" stroke-linecap="round" stroke-miterlimit="10" x1="170.617" y1="120.699" x2="203.967" y2="120.699"/>
			
				<line fill="none" stroke="#000000" stroke-width="5.0249" stroke-linecap="round" stroke-miterlimit="10" x1="171.781" y1="131.209" x2="214.418" y2="131.209"/>
			
				<line fill="none" stroke="#000000" stroke-width="5.0249" stroke-linecap="round" stroke-miterlimit="10" x1="195.944" y1="141.721" x2="206.87" y2="141.721"/>
			
				<line fill="none" stroke="#BE1E2D" stroke-width="5.0249" stroke-linecap="round" stroke-miterlimit="10" x1="182.108" y1="152.23" x2="213.32" y2="152.23"/>
			<path fill="none" stroke="#000000" stroke-width="5.0249" stroke-linecap="round" stroke-miterlimit="10" d="M212.77,162.742"/>
			<path fill="none" stroke="#000000" stroke-width="5.0249" stroke-linecap="round" stroke-miterlimit="10" d="M169.272,162.742"/>
			<path fill="none" stroke="#000000" stroke-width="5.0249" stroke-linecap="round" stroke-miterlimit="10" d="M217.123,23.359
				c0,16.763-50.282,16.763-50.282,33.525c0,16.763,50.282,16.763,50.282,33.526c0,16.763-50.282,16.763-50.282,33.527
				c0,16.764,50.282,16.764,50.282,33.529c0,2.902-1.508,5.303-3.998,7.373"/>
			<path fill="none" stroke="#000000" stroke-width="5.0249" stroke-linecap="round" stroke-miterlimit="10" d="M172.125,22.532
				c-3.25,2.288-5.284,4.981-5.284,8.353c0,16.763,50.282,16.763,50.282,33.526c0,16.763-50.282,16.763-50.282,33.526
				c0,16.765,50.282,16.765,50.282,33.53c0,16.766-50.282,16.766-50.282,33.531"/>
		</g>
		<g>
			
				<line fill="none" stroke="#000000" stroke-width="5.0249" stroke-linecap="round" stroke-miterlimit="10" x1="169.788" y1="26.1" x2="213.557" y2="26.1"/>
			
				<line fill="none" stroke="#000000" stroke-width="5.0249" stroke-linecap="round" stroke-miterlimit="10" x1="169.755" y1="162.742" x2="213.254" y2="162.742"/>
		</g>
	</g>
	<g>
		<g>
			<path fill="none" stroke="#000000" stroke-width="5.0249" stroke-linecap="round" stroke-miterlimit="10" d="M275.572,26.1"/>
			<path fill="none" stroke="#000000" stroke-width="5.0249" stroke-linecap="round" stroke-miterlimit="10" d="M231.804,26.1"/>
			
				<line fill="none" stroke="#000000" stroke-width="5.0249" stroke-linecap="round" stroke-miterlimit="10" x1="231.968" y1="36.611" x2="262.023" y2="36.611"/>
			
				<line fill="none" stroke="#000000" stroke-width="5.0249" stroke-linecap="round" stroke-miterlimit="10" x1="237.131" y1="47.122" x2="251.475" y2="47.122"/>
			
				<line fill="none" stroke="#000000" stroke-width="5.0249" stroke-linecap="round" stroke-miterlimit="10" x1="230.295" y1="57.632" x2="273.925" y2="57.632"/>
			
				<line fill="none" stroke="#000000" stroke-width="5.0249" stroke-linecap="round" stroke-miterlimit="10" x1="240.459" y1="68.144" x2="275.376" y2="68.144"/>
			
				<line fill="none" stroke="#000000" stroke-width="5.0249" stroke-linecap="round" stroke-miterlimit="10" x1="259.623" y1="78.655" x2="264.826" y2="78.655"/>
			
				<line fill="none" stroke="#BE1E2D" stroke-width="5.0249" stroke-miterlimit="10" x1="233.787" y1="89.166" x2="277.277" y2="89.166"/>
			
				<line fill="none" stroke="#000000" stroke-width="5.0249" stroke-linecap="round" stroke-miterlimit="10" x1="228.951" y1="99.676" x2="270.728" y2="99.676"/>
			
				<line fill="none" stroke="#000000" stroke-width="5.0249" stroke-miterlimit="10" x1="240.114" y1="110.188" x2="248.179" y2="110.188"/>
			
				<line fill="none" stroke="#000000" stroke-width="5.0249" stroke-linecap="round" stroke-miterlimit="10" x1="232.278" y1="120.699" x2="265.629" y2="120.699"/>
			
				<line fill="none" stroke="#000000" stroke-width="5.0249" stroke-linecap="round" stroke-miterlimit="10" x1="233.442" y1="131.209" x2="276.08" y2="131.209"/>
			
				<line fill="none" stroke="#000000" stroke-width="5.0249" stroke-linecap="round" stroke-miterlimit="10" x1="257.605" y1="141.721" x2="268.531" y2="141.721"/>
			
				<line fill="none" stroke="#000000" stroke-width="5.0249" stroke-linecap="round" stroke-miterlimit="10" x1="243.77" y1="152.23" x2="274.981" y2="152.23"/>
			<path fill="none" stroke="#000000" stroke-width="5.0249" stroke-linecap="round" stroke-miterlimit="10" d="M274.432,162.742"/>
			<path fill="none" stroke="#000000" stroke-width="5.0249" stroke-linecap="round" stroke-miterlimit="10" d="M230.934,162.742"/>
			<path fill="none" stroke="#000000" stroke-width="5.0249" stroke-linecap="round" stroke-miterlimit="10" d="M278.784,23.359
				c0,16.763-50.281,16.763-50.281,33.525c0,16.763,50.281,16.763,50.281,33.526c0,16.763-50.281,16.763-50.281,33.527
				c0,16.764,50.281,16.764,50.281,33.529c0,2.902-1.507,5.303-3.998,7.373"/>
			<path fill="none" stroke="#000000" stroke-width="5.0249" stroke-linecap="round" stroke-miterlimit="10" d="M233.787,22.532
				c-3.25,2.288-5.284,4.981-5.284,8.353c0,16.763,50.281,16.763,50.281,33.526c0,16.763-50.281,16.763-50.281,33.526
				c0,16.765,50.281,16.765,50.281,33.53c0,16.766-50.281,16.766-50.281,33.531"/>
		</g>
		<g>
			
				<line fill="none" stroke="#000000" stroke-width="5.0249" stroke-linecap="round" stroke-miterlimit="10" x1="231.449" y1="26.1" x2="275.218" y2="26.1"/>
			
				<line fill="none" stroke="#000000" stroke-width="5.0249" stroke-linecap="round" stroke-miterlimit="10" x1="231.417" y1="162.742" x2="274.915" y2="162.742"/>
		</g>
	</g>
	<g>
		<g>
			<path fill="none" stroke="#000000" stroke-width="5.0249" stroke-linecap="round" stroke-miterlimit="10" d="M152.249,26.1"/>
			<path fill="none" stroke="#000000" stroke-width="5.0249" stroke-linecap="round" stroke-miterlimit="10" d="M108.48,26.1"/>
			
				<line fill="none" stroke="#000000" stroke-width="5.0249" stroke-linecap="round" stroke-miterlimit="10" x1="108.645" y1="36.611" x2="138.7" y2="36.611"/>
			
				<line fill="none" stroke="#000000" stroke-width="5.0249" stroke-linecap="round" stroke-miterlimit="10" x1="113.808" y1="47.122" x2="128.151" y2="47.122"/>
			
				<line fill="none" stroke="#BE1E2D" stroke-width="5.0249" stroke-linecap="round" stroke-miterlimit="10" x1="106.972" y1="57.632" x2="150.602" y2="57.632"/>
			
				<line fill="none" stroke="#000000" stroke-width="5.0249" stroke-linecap="round" stroke-miterlimit="10" x1="117.136" y1="68.144" x2="152.053" y2="68.144"/>
			
				<line fill="none" stroke="#000000" stroke-width="5.0249" stroke-linecap="round" stroke-miterlimit="10" x1="136.3" y1="78.655" x2="141.503" y2="78.655"/>
			
				<line fill="none" stroke="#000000" stroke-width="5.0249" stroke-miterlimit="10" x1="110.464" y1="89.166" x2="153.954" y2="89.166"/>
			
				<line fill="none" stroke="#000000" stroke-width="5.0249" stroke-linecap="round" stroke-miterlimit="10" x1="105.628" y1="99.676" x2="147.404" y2="99.676"/>
			
				<line fill="none" stroke="#000000" stroke-width="5.0249" stroke-miterlimit="10" x1="116.791" y1="110.188" x2="124.855" y2="110.188"/>
			
				<line fill="none" stroke="#BE1E2D" stroke-width="5.0249" stroke-linecap="round" stroke-miterlimit="10" x1="108.955" y1="120.699" x2="142.306" y2="120.699"/>
			
				<line fill="none" stroke="#000000" stroke-width="5.0249" stroke-linecap="round" stroke-miterlimit="10" x1="110.119" y1="131.209" x2="152.757" y2="131.209"/>
			
				<line fill="none" stroke="#000000" stroke-width="5.0249" stroke-linecap="round" stroke-miterlimit="10" x1="134.282" y1="141.721" x2="145.208" y2="141.721"/>
			
				<line fill="none" stroke="#000000" stroke-width="5.0249" stroke-linecap="round" stroke-miterlimit="10" x1="120.446" y1="152.23" x2="151.658" y2="152.23"/>
			<path fill="none" stroke="#000000" stroke-width="5.0249" stroke-linecap="round" stroke-miterlimit="10" d="M151.108,162.742"/>
			<path fill="none" stroke="#000000" stroke-width="5.0249" stroke-linecap="round" stroke-miterlimit="10" d="M107.61,162.742"/>
			<path fill="none" stroke="#000000" stroke-width="5.0249" stroke-linecap="round" stroke-miterlimit="10" d="M155.461,23.359
				c0,16.763-50.281,16.763-50.281,33.525c0,16.763,50.281,16.763,50.281,33.526c0,16.763-50.281,16.763-50.281,33.527
				c0,16.764,50.281,16.764,50.281,33.529c0,2.902-1.507,5.303-3.998,7.373"/>
			<path fill="none" stroke="#000000" stroke-width="5.0249" stroke-linecap="round" stroke-miterlimit="10" d="M110.464,22.532
				c-3.25,2.288-5.284,4.981-5.284,8.353c0,16.763,50.281,16.763,50.281,33.526c0,16.763-50.281,16.763-50.281,33.526
				c0,16.765,50.281,16.765,50.281,33.53c0,16.766-50.281,16.766-50.281,33.531"/>
		</g>
		<g>
			
				<line fill="none" stroke="#000000" stroke-width="5.0249" stroke-linecap="round" stroke-miterlimit="10" x1="108.126" y1="26.1" x2="151.895" y2="26.1"/>
			
				<line fill="none" stroke="#000000" stroke-width="5.0249" stroke-linecap="round" stroke-miterlimit="10" x1="108.094" y1="162.742" x2="151.592" y2="162.742"/>
		</g>
	</g>
</g>
<g>
	<text transform="matrix(1 0 0 1 312.2129 41.0405)" fill="#010101" font-family="'Verdana'" font-size="23.3625">A</text>
	<text transform="matrix(1 0 0 1 311.1406 156.25)" fill="#010101" font-family="'Verdana'" font-size="23.3625">G</text>
	<text transform="matrix(1 0 0 1 420.6416 41.0405)" fill="#010101" font-family="'Verdana'" font-size="23.3625">C</text>
	<text transform="matrix(1 0 0 1 423.5371 156.252)" fill="#010101" font-family="'Verdana'" font-size="23.3625">T</text>
	
		<line id="AC_line" fill="none" stroke="#010101" stroke-width="0.5873" stroke-miterlimit="10" x1="409.969" y1="37.739" x2="333.595" y2="37.739"/>
	
		<line id="AG_line" fill="none" stroke="#010101" stroke-width="1.7619" stroke-miterlimit="10" x1="316.952" y1="123.91" x2="316.952" y2="47.538"/>
	
		<line id="AT_line" fill="none" stroke="#010101" stroke-width="1.7619" stroke-miterlimit="10" x1="331.799" y1="49.484" x2="410.467" y2="128.152"/>
	
		<line id="TA_line" fill="none" stroke="#010101" stroke-width="0.8086" stroke-miterlimit="10" x1="342.529" y1="51.129" x2="421.197" y2="129.797"/>
	
		<line id="TC_line" fill="none" stroke="#010101" stroke-width="0.8086" stroke-miterlimit="10" x1="433.988" y1="131.744" x2="433.988" y2="55.371"/>
	
		<line id="CG_line" fill="none" stroke="#010101" stroke-width="0.25" stroke-miterlimit="10" x1="416.654" y1="44.941" x2="337.986" y2="123.609"/>
	
		<line id="CA_line" fill="none" stroke="#010101" stroke-width="0.3796" stroke-miterlimit="10" x1="417.801" y1="31.25" x2="341.428" y2="31.25"/>
	<line id="TG_line" fill="none" x1="417.801" y1="146.461" x2="341.428" y2="146.461"/>
	
		<line id="CT_line" fill="none" stroke="#010101" stroke-width="2.2774" stroke-miterlimit="10" x1="427.498" y1="123.91" x2="427.498" y2="47.538"/>
	
		<line id="GA_line" fill="none" stroke="#010101" stroke-width="0.9991" stroke-miterlimit="10" x1="323.441" y1="131.744" x2="323.441" y2="55.371"/>
	
		<line id="GC_line" fill="none" stroke="#010101" stroke-width="0.333" stroke-miterlimit="10" x1="415.01" y1="55.672" x2="336.341" y2="134.34"/>
	
		<line id="GT_line" fill="none" stroke="#010101" stroke-width="0.6661" stroke-miterlimit="10" x1="409.969" y1="152.949" x2="333.595" y2="152.949"/>
	<path fill="#010101" d="M336.99,45.59c1.64,3.573,3.224,8.457,3.479,12.209l2.786-5.944l5.942-2.785
		C345.446,48.814,340.563,47.231,336.99,45.59z"/>
	<path fill="#010101" d="M316.952,131.744c1.367-3.686,3.701-8.26,6.173-11.094l-6.173,2.232l-6.172-2.232
		C313.252,123.484,315.586,128.059,316.952,131.744z"/>
	<path fill="#010101" d="M323.441,47.538c1.367,3.686,3.701,8.259,6.173,11.094l-6.173-2.232l-6.172,2.232
		C319.742,55.796,322.075,51.223,323.441,47.538z"/>
	<path fill="#010101" d="M417.801,37.739c-3.686-1.367-8.259-3.701-11.094-6.173l2.232,6.173l-2.232,6.171
		C409.543,41.439,414.116,39.105,417.801,37.739z"/>
	<path fill="#010101" d="M333.595,31.25c3.687-1.367,8.26-3.701,11.094-6.173l-2.231,6.173l2.231,6.172
		C341.854,34.949,337.28,32.616,333.595,31.25z"/>
	
		<line id="CA_line_1_" fill="none" stroke="#010101" stroke-width="0.3796" stroke-miterlimit="10" x1="417.778" y1="146.461" x2="341.405" y2="146.461"/>
	<path fill="#010101" d="M333.572,146.461c3.687-1.367,8.26-3.701,11.094-6.173l-2.231,6.173l2.231,6.172
		C341.831,150.16,337.258,147.827,333.572,146.461z"/>
	<path fill="#010101" d="M417.801,152.949c-3.686-1.367-8.259-3.699-11.094-6.172l2.232,6.172l-2.232,6.172
		C409.543,156.65,414.116,154.316,417.801,152.949z"/>
	<path fill="#010101" d="M427.498,131.744c1.368-3.686,3.701-8.26,6.174-11.094l-6.174,2.232l-6.171-2.232
		C423.799,123.484,426.133,128.059,427.498,131.744z"/>
	<path fill="#010101" d="M433.988,47.538c1.367,3.686,3.7,8.259,6.173,11.094l-6.173-2.232l-6.172,2.232
		C430.289,55.796,432.622,51.223,433.988,47.538z"/>
	<path fill="#010101" d="M416.006,133.691c-3.573-1.639-8.457-3.223-12.21-3.48l5.944-2.785l2.785-5.943
		C412.781,125.234,414.365,130.119,416.006,133.691z"/>
	<path fill="#010101" d="M420.549,50.133c-3.573,1.639-8.458,3.223-12.21,3.479l5.943,2.786l2.786,5.942
		C417.324,58.589,418.908,53.706,420.549,50.133z"/>
	<path fill="#010101" d="M332.447,129.148c1.64-3.574,3.224-8.457,3.48-12.211l2.785,5.945l5.943,2.785
		C340.903,125.924,336.021,127.508,332.447,129.148z"/>
</g>
</svg>
